<svg width="512" height="512" viewBox="0 0 512 512" xmlns="http://www.w3.org/2000/svg" role="img" aria-label="Barlas Trailer">
  <defs>
    <linearGradient id="badge" x1="0" y1="0" x2="1" y2="1">
      <stop offset="0" stop-color="#1C7FD6"/>
      <stop offset="0.55" stop-color="#0E5FB5"/>
      <stop offset="1" stop-color="#0A3F86"/>
    </linearGradient>
    <linearGradient id="sheen" x1="0" y1="0" x2="0" y2="1">
      <stop offset="0" stop-color="#FFFFFF" stop-opacity="0.20"/>
      <stop offset="0.5" stop-color="#FFFFFF" stop-opacity="0"/>
    </linearGradient>
  </defs>
  <rect x="16" y="16" width="480" height="480" rx="120" fill="url(#badge)"/>
  <rect x="16" y="16" width="480" height="480" rx="120" fill="url(#sheen)"/>
  <g fill="#FFFFFF">
    <rect x="118" y="150" width="276" height="100" rx="50"/>
    <path d="M158 246 H238 L216 304 H180 Z"/>
    <path d="M278 246 H358 L336 304 H300 Z"/>
    <rect x="110" y="310" width="292" height="18" rx="9"/>
    <rect x="128" y="328" width="16" height="32" rx="7"/>
    <rect x="66" y="196" width="36" height="14" rx="7" opacity="0.92"/>
    <rect x="56" y="228" width="24" height="14" rx="7" opacity="0.92"/>
  </g>
  <g>
    <circle cx="216" cy="360" r="31" fill="#FFFFFF"/><circle cx="216" cy="360" r="13" fill="#0E5FB5"/>
    <circle cx="322" cy="360" r="31" fill="#FFFFFF"/><circle cx="322" cy="360" r="13" fill="#0E5FB5"/>
  </g>
</svg>
