<svg width="640" height="380" viewBox="0 0 640 380" xmlns="http://www.w3.org/2000/svg" role="img" aria-label="Barlas Trailer silobas">
  <defs>
    <linearGradient id="tank" x1="0" y1="0" x2="0" y2="1">
      <stop offset="0" stop-color="#3CA2E9"/><stop offset="1" stop-color="#0D56AA"/>
    </linearGradient>
  </defs>
  <g fill="#1C7FD6">
    <rect x="10" y="150" width="125" height="16" rx="8" opacity="0.92"/>
    <rect x="0" y="184" width="112" height="16" rx="8" opacity="0.68"/>
    <rect x="24" y="218" width="98" height="16" rx="8" opacity="0.46"/>
  </g>
  <rect x="140" y="58" width="460" height="147" rx="73" fill="url(#tank)"/>
  <rect x="348" y="44" width="48" height="16" rx="6" fill="#0D2642"/>
  <g fill="#09346E">
    <polygon points="170,205 290,205 254,284 206,284"/>
    <polygon points="310,205 430,205 394,284 346,284"/>
    <polygon points="450,205 570,205 534,284 486,284"/>
  </g>
  <g fill="#0D2642">
    <rect x="110" y="284" width="510" height="20" rx="10"/>
    <rect x="186" y="304" width="20" height="52" rx="9"/>
    <rect x="176" y="350" width="40" height="16" rx="8"/>
    <polygon points="120,304 150,304 135,330"/>
    <circle cx="452" cy="334" r="38"/><circle cx="532" cy="334" r="38"/>
  </g>
  <circle cx="452" cy="334" r="14" fill="#FFFFFF"/><circle cx="532" cy="334" r="14" fill="#FFFFFF"/>
</svg>
